HIERARCHY
ROOT ui
{
	 OFFSET 0 0 0
	 CHANNELS 3 XPosition YPosition Z Position
	 EndSite
	 {
	 OFFSET 0 -1 0
	 }
}
ROOT li
{
	 OFFSET 0 0 0
	 CHANNELS 3 XPosition YPosition Z Position
	 EndSite
	 {
	 OFFSET 0 -1 0
	 }
}
ROOT ul
{
	 OFFSET 0 0 0
	 CHANNELS 3 XPosition YPosition Z Position
	 EndSite
	 {
	 OFFSET 0 -1 0
	 }
}
ROOT ll
{
	 OFFSET 0 0 0
	 CHANNELS 3 XPosition YPosition Z Position
	 EndSite
	 {
	 OFFSET 0 -1 0
	 }
}
ROOT tt
{
	 OFFSET 0 0 0
	 CHANNELS 3 XPosition YPosition Z Position
	 EndSite
	 {
	 OFFSET 0 -1 0
	 }
}
ROOT tb
{
	 OFFSET 0 0 0
	 CHANNELS 3 XPosition YPosition Z Position
	 EndSite
	 {
	 OFFSET 0 -1 0
	 }
}
ROOT td
{
	 OFFSET 0 0 0
	 CHANNELS 3 XPosition YPosition Z Position
	 EndSite
	 {
	 OFFSET 0 -1 0
	 }
}
ROOT v
{
	 OFFSET 0 0 0
	 CHANNELS 3 XPosition YPosition Z Position
	 EndSite
	 {
	 OFFSET 0 -1 0
	 }
}
ROOT bn
{
	 OFFSET 0 0 0
	 CHANNELS 3 XPosition YPosition Z Position
	 EndSite
	 {
	 OFFSET 0 -1 0
	 }
}
MOTION
Frames: 30
Frame Time: 0.002
-0.03218885040283203	0.0025916459560394287	0		0.5270573120117188	-2.65677001953125	0		-0.91903515625	0.19985198974609375	0		-0.6386928100585938	-2.779862060546875	0		3.53052734375	-0.22453073120117187	0		4.70660986328125	-0.5515078125	0		5.7804541015625	-0.5616851806640625	0		5.99301708984375	0.3568828125	0		-0.14020159912109376	5.90533544921875	0		
0.04941278839111328	0.0013145660161972047	0		0.5736565551757813	-2.653844970703125	0		-0.8583955078125	0.2047084197998047	0		-0.566035888671875	-2.767079833984375	0		3.532240966796875	-0.20636898803710937	0		4.67123779296875	-0.5471380004882812	0		5.77313037109375	-0.5494905395507812	0		5.9836357421875	0.3580853576660156	0		-0.10748622894287109	5.9133505859375	0		
-0.004980247974395752	0.0028107800483703612	0		0.5152499389648437	-2.650330078125	0		-0.9407682495117188	0.2093798370361328	0		-0.6131880493164062	-2.7206201171875	0		3.5408271484375	-0.20828092956542968	0		4.67285009765625	-0.5440193481445312	0		5.7727265625	-0.54936865234375	0		5.97919189453125	0.35022726440429686	0		-0.1428643341064453	5.9077353515625	0		
0.03755309677124023	-0.008301457405090333	0		0.56084228515625	-2.64746533203125	0		-0.941166748046875	0.20953211975097658	0		-0.6055658569335938	-2.712518798828125	0		3.532490478515625	-0.1971222686767578	0		4.67648046875	-0.5379424438476562	0		5.76132275390625	-0.5492105102539062	0		5.9747470703125	0.342340087890625	0		-0.10916951751708984	5.914677734375	0		
-0.03680014801025391	-7.465819716453552E-4	0		0.51641796875	-2.64809375	0		-0.9415611572265625	0.2096541748046875	0		-0.63591943359375	-2.701220703125	0		3.504152587890625	-0.18687210083007813	0		4.6731513671875	-0.525851318359375	0		5.77190478515625	-0.5522103271484375	0		5.98334765625	0.34134860229492187	0		-0.14454972839355468	5.90900146484375	0		
0.04480850982666015	-0.0011491179466247559	0		0.51008447265625	-2.634975341796875	0		-0.936925537109375	0.21371879577636718	0		-0.6642529907226562	-2.687961669921875	0		3.518766845703125	-0.18590303039550782	0		4.662775390625	-0.522742431640625	0		5.76962548828125	-0.53315673828125	0		5.98206201171875	0.3583929443359375	0		-0.11085067749023438	5.91588623046875	0		
-0.03454853439331055	0.003386348009109497	0		0.5116945495605468	-2.632927734375	0		-0.9373063354492187	0.21378913879394532	0		-0.6045546264648437	-2.67125244140625	0		3.5224130859375	-0.18088966369628906	0		4.66238916015625	-0.5227135009765626	0		5.75724609375	-0.532062744140625	0		5.98258056640625	0.34140643310546875	0		-0.11118930816650391	5.91595068359375	0		
0.044051368713378905	-0.0010430439710617065	0		0.5303378295898438	-2.627001708984375	0		-0.9376796875	0.21383866882324218	0		-0.6878558959960938	-2.65570849609375	0		3.504061279296875	-0.1767621154785156	0		4.669064453125	-0.5137432861328125	0		5.7619345703125	-0.5210865478515625	0		5.9822080078125	0.341409912109375	0		-0.1125186767578125	5.91700048828125	0		
-0.03831534194946289	-5.25371015071869E-4	0		0.5019665222167968	-2.624810546875	0		-0.9380465698242187	0.21387074279785157	0		-0.6201990966796875	-2.649085693359375	0		3.480758544921875	-0.16561880493164063	0		4.63683203125	-0.49055322265625	0		5.73858251953125	-0.5179553833007813	0		5.96789599609375	0.35048455810546875	0		-0.14788099670410157	5.9122373046875	0		
0.04331959915161133	-0.0010041019916534424	0		0.5036070861816406	-2.621812255859375	0		-0.9293612060546875	0.22183448791503907	0		-0.68950341796875	-2.63665576171875	0		3.4763701171875	-0.1696001434326172	0		4.6324296875	-0.49654058837890624	0		5.74515087890625	-0.529013427734375	0		5.97248046875	0.3414362487792969	0		-0.14821943664550782	5.9112509765625	0		
-0.031046894073486327	-0.001557270050048828	0		0.5182211303710937	-2.62390185546875	0		-0.9196741943359374	0.2297812957763672	0		-0.6418300170898438	-2.62893798828125	0		3.462067626953125	-0.15952919006347657	0		4.6431552734375	-0.4816250305175781	0		5.73090185546875	-0.5099519653320312	0		5.985162109375	0.3483338928222656	0		-0.08139969635009765	5.93685205078125	0		
0.04561171722412109	0.001976511001586914	0		0.5099137573242187	-2.612859619140625	0		-0.920037353515625	0.22978091430664063	0		-0.7010944213867187	-2.61058544921875	0		3.47069091796875	-0.16159959411621094	0		4.61687451171875	-0.46748980712890625	0		5.7296689453125	-0.48797027587890623	0		5.9758115234375	0.35036233520507815	0		-0.11485558319091797	5.918046875	0		
-0.04474617385864258	0.004510540008544922	0		0.5245407104492188	-2.611957763671875	0		-0.9254321899414063	0.2258069305419922	0		-0.6275166015625	-2.61803466796875	0		3.4492412109375	-0.17448947143554688	0		4.5845380859375	-0.4613171081542969	0		5.71224853515625	-0.4958900146484375	0		5.97138671875	0.34136325073242185	0		-0.1162046356201172	5.919046875	0		
-0.013161187171936034	-6.879119873046875E-4	0		0.4961634521484375	-2.609796875	0		-0.9207921752929688	0.22977244567871094	0		-0.6638817138671875	-2.6138232421875	0		3.432856689453125	-0.17440667724609374	0		4.610146484375	-0.4624891052246094	0		5.72488134765625	-0.49298583984375	0		5.974955078125	0.33332077026367185	0		-0.1165768051147461	5.91904052734375	0		
-0.013560874938964844	-6.909520030021668E-4	0		0.5277711181640625	-2.6079931640625	0		-0.9211915283203125	0.22977082824707032	0		-0.7002548217773438	-2.60860888671875	0		3.4204931640625	-0.1683430633544922	0		4.58787255859375	-0.44136749267578124	0		5.70554736328125	-0.481883544921875	0		5.96160400390625	0.3413863525390625	0		-0.18603811645507812	5.907453125	0		
0.040072364807128905	0.006986802101135254	0		0.4734031677246094	-2.59966650390625	0		-0.907533203125	0.24169017028808593	0		-0.6956478881835938	-2.6046357421875	0		3.377043701171875	-0.17408583068847655	0		4.5855244140625	-0.4303585510253906	0		5.711193359375	-0.47192379760742187	0		5.97423828125	0.349303466796875	0		-0.08723616790771484	5.94185986328125	0		
-0.010377340316772461	0.003298013925552368	0		0.5210035400390625	-2.5949453125	0		-0.9079595336914063	0.24170138549804687	0		-0.69607666015625	-2.60462451171875	0		3.355659423828125	-0.16695213317871094	0		4.5791455078125	-0.422316162109375	0		5.69789892578125	-0.44984033203125	0		5.97876416015625	0.34127880859375	0		-0.11778939056396484	5.92005126953125	0		
-0.014840828895568847	-6.584050059318542E-4	0		0.49056320190429686	-2.59474560546875	0		-0.90839892578125	0.2417213134765625	0		-0.6945055541992188	-2.602616943359375	0		3.34715380859375	-0.17788616943359375	0		4.5627783203125	-0.410203125	0		5.6814296875	-0.4547275085449219	0		5.97337890625	0.350324951171875	0		-0.11822571563720703	5.92007080078125	0		
-0.02026947784423828	0.0034005749225616455	0		0.5180969848632813	-2.59688525390625	0		-0.9088516235351562	0.24175057983398437	0		-0.6969712524414062	-2.60457568359375	0		3.307635498046875	-0.18862351989746093	0		4.54143994140625	-0.39104974365234374	0		5.66405517578125	-0.4415983581542969	0		5.95987841796875	0.3424302368164063	0		-0.11967045593261719	5.92110546875	0		
-0.04275625228881836	-4.284459948539734E-4	0		0.4736277465820313	-2.597582275390625	0		-0.9042907104492187	0.24575929260253906	0		-0.68345361328125	-2.60762109375	0		3.267125	-0.19634535217285157	0		4.52200732421875	-0.3858985900878906	0		5.65071826171875	-0.42048394775390624	0		5.9594091796875	0.3414666748046875	0		-0.15417295837402345	5.91434912109375	0		
0.04581880569458008	0.006083706855773926	0		0.497232666015625	-2.58567919921875	0		-0.8957080688476563	0.2537532348632813	0		-0.6758724365234375	-2.59962109375	0		3.221654296875	-0.197028564453125	0		4.52366796875	-0.36486566162109374	0		5.63927099609375	-0.41737295532226565	0		5.9719921875	0.34943289184570314	0		-0.15364129638671875	5.913390625	0		
-0.012655177116394044	0.0034887740612030028	0		0.4967738342285156	-2.58562353515625	0		-0.9052128295898437	0.24586421203613282	0		-0.602374755859375	-2.607009765625	0		3.1971494140625	-0.20483029174804687	0		4.49334375	-0.34263275146484373	0		5.633904296875	-0.402291015625	0		5.96758935546875	0.3585085144042969	0		-0.12104647064208984	5.921248046875	0		
-0.017117136001586913	-4.2454099655151367E-4	0		0.5223033447265625	-2.5907177734375	0		-0.9116264038085937	0.24996347045898437	0		-0.6787832641601562	-2.601489501953125	0		3.159651611328125	-0.21454734802246095	0		4.44793603515625	-0.33730291748046876	0		5.60656884765625	-0.3850704650878906	0		5.97604931640625	0.34151263427734374	0		-0.12147991180419922	5.92131103515625	0		
-0.017525177001953125	-3.57928991317749E-4	0		0.4849605712890625	-2.57942919921875	0		-0.9120343017578125	0.2500306396484375	0		-0.603224365234375	-2.6068798828125	0		3.127141845703125	-0.23128977966308595	0		4.42857666015625	-0.3291248474121094	0		5.586203125	-0.377886962890625	0		5.96169580078125	0.35065966796875	0		-0.12287826538085937	5.92238330078125	0		
-0.017889341354370116	-2.89929986000061E-4	0		0.49555923461914064	-2.58542724609375	0		-0.9073743896484375	0.25406875610351565	0		-0.6556365966796875	-2.61449853515625	0		3.069742431640625	-0.2368795928955078	0		4.39833935546875	-0.30787811279296873	0		5.58091748046875	-0.36479083251953126	0		5.97527734375	0.3416416015625	0		-0.12224653625488281	5.9214453125	0		
0.039824752807617186	0.0024275898933410643	0		0.5012984619140625	-2.57839697265625	0		-0.8976293334960938	0.2620750732421875	0		-0.6559393920898438	-2.614431884765625	0		3.028404296875	-0.24256587219238282	0		4.3691875	-0.2826371154785156	0		5.5518076171875	-0.3325499267578125	0		5.97002294921875	0.34973849487304687	0		-0.12254970550537109	5.92151220703125	0		
0.03960039901733398	0.00249016809463501	0		0.48217193603515623	-2.562219970703125	0		-0.9028778076171875	0.25816738891601565	0		-0.6591805419921875	-2.6173515625	0		2.991120361328125	-0.2522790679931641	0		4.3580654296875	-0.26550668334960936	0		5.5385712890625	-0.33440667724609374	0		5.96980419921875	0.35080374145507814	0		-0.15781222534179687	5.91578564453125	0		
0.03644850158691406	-4.3644100427627565E-4	0		0.5199795532226562	-2.572392822265625	0		-0.9089877319335937	0.26225784301757815	0		-0.5903795166015625	-2.6287119140625	0		2.947855224609375	-0.2739618835449219	0		4.33402880859375	-0.24930325317382812	0		5.5055830078125	-0.3101483154296875	0		5.969669921875	0.35086453247070315	0		-0.12490404510498047	5.9236416015625	0		
-0.025631837844848633	-0.007018740177154541	0		0.4820050048828125	-2.562119140625	0		-0.913997314453125	0.2673309326171875	0		-0.6604676513671875	-2.6372470703125	0		2.9107626953125	-0.2826900634765625	0		4.28306884765625	-0.23594544982910157	0		5.4846884765625	-0.2859697265625	0		5.96558203125	0.3429424743652344	0		-0.12495255279541016	5.92368603515625	0		
0.03646293640136719	-3.6116200685501097E-4	0		0.4860948486328125	-2.557111572265625	0		-0.8979745483398438	0.2622632751464844	0		-0.662419677734375	-2.639205810546875	0		2.8346923828125	-0.30319512939453125	0		4.24622021484375	-0.21968251037597655	0		5.44682763671875	-0.2716983642578125	0		5.97373095703125	0.3589387512207031	0		-0.12292478942871093	5.92170458984375	0		
